<mxfile host="app.diagrams.net" modified="2023-08-02T22:55:23.641Z" agent="Mozilla/5.0 (Windows NT 10.0; Win64; x64) AppleWebKit/537.36 (KHTML, like Gecko) Chrome/115.0.0.0 Safari/537.36 Edg/115.0.1901.188" etag="8HaRUz-KVIJgPukNaCEG" version="21.6.5" type="device">
  <diagram name="Trang-1" id="USwZZq-t5rZfZvbshj6q">
    <mxGraphModel dx="1176" dy="566" grid="1" gridSize="10" guides="1" tooltips="1" connect="1" arrows="1" fold="1" page="1" pageScale="1" pageWidth="827" pageHeight="1169" math="0" shadow="0">
      <root>
        <mxCell id="0" />
        <mxCell id="1" parent="0" />
        <mxCell id="_5mIFH6RfY2-4TW6TgeX-10" value="" style="rounded=1;whiteSpace=wrap;html=1;" vertex="1" parent="1">
          <mxGeometry x="210" y="165" width="700" height="585" as="geometry" />
        </mxCell>
        <object label="Guest" Guest="" id="PoIpQ0HLdhZe41mP14lp-1">
          <mxCell style="shape=umlActor;verticalLabelPosition=bottom;verticalAlign=top;html=1;outlineConnect=0;" parent="1" vertex="1">
            <mxGeometry x="543.2800000000001" y="100" width="30" height="60" as="geometry" />
          </mxCell>
        </object>
        <mxCell id="PoIpQ0HLdhZe41mP14lp-2" value="Customer" style="shape=umlActor;verticalLabelPosition=bottom;verticalAlign=top;html=1;outlineConnect=0;" parent="1" vertex="1">
          <mxGeometry x="161.73" y="367.5" width="30" height="60" as="geometry" />
        </mxCell>
        <mxCell id="PoIpQ0HLdhZe41mP14lp-7" value="Seller" style="shape=umlActor;verticalLabelPosition=bottom;verticalAlign=top;html=1;outlineConnect=0;" parent="1" vertex="1">
          <mxGeometry x="921.73" y="440" width="30" height="60" as="geometry" />
        </mxCell>
        <mxCell id="PoIpQ0HLdhZe41mP14lp-8" value="Admin&lt;br&gt;" style="shape=umlActor;verticalLabelPosition=bottom;verticalAlign=top;html=1;outlineConnect=0;" parent="1" vertex="1">
          <mxGeometry x="921.73" y="275" width="30" height="60" as="geometry" />
        </mxCell>
        <mxCell id="PoIpQ0HLdhZe41mP14lp-13" value="&lt;font style=&quot;font-size: 9px;&quot;&gt;Add to temporary order&lt;/font&gt;" style="ellipse;whiteSpace=wrap;html=1;align=center;" parent="1" vertex="1">
          <mxGeometry x="410.00000000000006" y="350" width="76" height="45" as="geometry" />
        </mxCell>
        <mxCell id="PoIpQ0HLdhZe41mP14lp-14" value="&lt;font size=&quot;1&quot;&gt;4. Search products&lt;/font&gt;" style="ellipse;whiteSpace=wrap;html=1;fillColor=#FFFF66;" parent="1" vertex="1">
          <mxGeometry x="489.46" y="265" width="70" height="40" as="geometry" />
        </mxCell>
        <mxCell id="PoIpQ0HLdhZe41mP14lp-16" value="&lt;font style=&quot;font-size: 9px;&quot;&gt;2. Log in&lt;/font&gt;" style="ellipse;whiteSpace=wrap;html=1;fillColor=#FFFF66;" parent="1" vertex="1">
          <mxGeometry x="410.00000000000006" y="250" width="70" height="30" as="geometry" />
        </mxCell>
        <mxCell id="A0umYNvF5nIpXT-o77tM-2" value="&lt;font style=&quot;font-size: 9px;&quot;&gt;11. Process user reports&lt;/font&gt;" style="ellipse;whiteSpace=wrap;html=1;fillColor=#FFFF66;" parent="1" vertex="1">
          <mxGeometry x="720" y="350" width="80" height="50" as="geometry" />
        </mxCell>
        <mxCell id="A0umYNvF5nIpXT-o77tM-4" value="&lt;font style=&quot;font-size: 9px;&quot;&gt;6. Publish articles&lt;/font&gt;" style="ellipse;whiteSpace=wrap;html=1;fillColor=#FFFF66;" parent="1" vertex="1">
          <mxGeometry x="760" y="180" width="100" height="50" as="geometry" />
        </mxCell>
        <mxCell id="A0umYNvF5nIpXT-o77tM-5" value="&lt;font style=&quot;font-size: 9px;&quot;&gt;12.Control website status&amp;nbsp;&lt;/font&gt;" style="ellipse;whiteSpace=wrap;html=1;fillColor=#FFFF66;" parent="1" vertex="1">
          <mxGeometry x="695" y="230" width="90" height="50" as="geometry" />
        </mxCell>
        <mxCell id="A0umYNvF5nIpXT-o77tM-6" value="&lt;font style=&quot;font-size: 9px;&quot;&gt;13. Manage user accounts&lt;/font&gt;" style="ellipse;whiteSpace=wrap;html=1;fillColor=#FFFF66;" parent="1" vertex="1">
          <mxGeometry x="656.73" y="295" width="90" height="40" as="geometry" />
        </mxCell>
        <mxCell id="A0umYNvF5nIpXT-o77tM-8" value="&lt;font style=&quot;font-size: 9px;&quot;&gt;Check store statistics&lt;/font&gt;" style="ellipse;whiteSpace=wrap;html=1;" parent="1" vertex="1">
          <mxGeometry x="651.73" y="691.22" width="70" height="50" as="geometry" />
        </mxCell>
        <mxCell id="A0umYNvF5nIpXT-o77tM-9" value="&lt;font style=&quot;font-size: 9px;&quot;&gt;10. Manage products&amp;nbsp;&lt;/font&gt;" style="ellipse;whiteSpace=wrap;html=1;fillColor=#FFFF66;" parent="1" vertex="1">
          <mxGeometry x="528.28" y="564.5" width="60" height="40" as="geometry" />
        </mxCell>
        <mxCell id="A0umYNvF5nIpXT-o77tM-12" value="&lt;font style=&quot;font-size: 9px;&quot;&gt;9. Manage stores&lt;/font&gt;" style="ellipse;whiteSpace=wrap;html=1;fillColor=#FFFF66;" parent="1" vertex="1">
          <mxGeometry x="710" y="604.5" width="80" height="46.72" as="geometry" />
        </mxCell>
        <mxCell id="A0umYNvF5nIpXT-o77tM-13" value="&lt;font style=&quot;font-size: 9px;&quot;&gt;5. Read articles&lt;/font&gt;" style="ellipse;whiteSpace=wrap;html=1;fillColor=#FFFF66;" parent="1" vertex="1">
          <mxGeometry x="588.28" y="240" width="80" height="50" as="geometry" />
        </mxCell>
        <mxCell id="A0umYNvF5nIpXT-o77tM-14" value="&lt;font style=&quot;font-size: 9px;&quot;&gt;Purchase&lt;/font&gt;" style="ellipse;whiteSpace=wrap;html=1;" parent="1" vertex="1">
          <mxGeometry x="250" y="597.72" width="64.85" height="33.28" as="geometry" />
        </mxCell>
        <mxCell id="A0umYNvF5nIpXT-o77tM-15" value="&lt;font style=&quot;font-size: 9px;&quot;&gt;8. Manage order&lt;br&gt;history&lt;br&gt;&lt;/font&gt;" style="ellipse;whiteSpace=wrap;html=1;fillColor=#FFFF66;" parent="1" vertex="1">
          <mxGeometry x="400" y="465" width="70" height="40" as="geometry" />
        </mxCell>
        <mxCell id="X4AEslMbNNMhsFveHLo--8" value="" style="endArrow=none;html=1;rounded=0;" parent="1" source="A0umYNvF5nIpXT-o77tM-12" edge="1">
          <mxGeometry width="50" height="50" relative="1" as="geometry">
            <mxPoint x="804.85" y="490" as="sourcePoint" />
            <mxPoint x="901.73" y="470" as="targetPoint" />
            <Array as="points">
              <mxPoint x="861.73" y="470" />
            </Array>
          </mxGeometry>
        </mxCell>
        <mxCell id="X4AEslMbNNMhsFveHLo--9" value="" style="endArrow=none;html=1;rounded=0;" parent="1" source="A0umYNvF5nIpXT-o77tM-9" edge="1">
          <mxGeometry width="50" height="50" relative="1" as="geometry">
            <mxPoint x="761.73" y="480" as="sourcePoint" />
            <mxPoint x="901.73" y="470" as="targetPoint" />
            <Array as="points">
              <mxPoint x="861.73" y="470" />
            </Array>
          </mxGeometry>
        </mxCell>
        <mxCell id="X4AEslMbNNMhsFveHLo--10" value="" style="endArrow=none;html=1;rounded=0;" parent="1" source="A0umYNvF5nIpXT-o77tM-15" edge="1">
          <mxGeometry width="50" height="50" relative="1" as="geometry">
            <mxPoint x="781.73" y="540" as="sourcePoint" />
            <mxPoint x="901.73" y="470" as="targetPoint" />
            <Array as="points">
              <mxPoint x="861.73" y="470" />
            </Array>
          </mxGeometry>
        </mxCell>
        <mxCell id="X4AEslMbNNMhsFveHLo--12" value="" style="endArrow=none;html=1;rounded=0;" parent="1" source="PoIpQ0HLdhZe41mP14lp-16" edge="1">
          <mxGeometry width="50" height="50" relative="1" as="geometry">
            <mxPoint x="488.46000000000004" y="200" as="sourcePoint" />
            <mxPoint x="541.73" y="140" as="targetPoint" />
            <Array as="points">
              <mxPoint x="521.73" y="150" />
            </Array>
          </mxGeometry>
        </mxCell>
        <mxCell id="X4AEslMbNNMhsFveHLo--13" value="" style="endArrow=none;html=1;rounded=0;" parent="1" source="A0umYNvF5nIpXT-o77tM-13" edge="1">
          <mxGeometry width="50" height="50" relative="1" as="geometry">
            <mxPoint x="651.73" y="210" as="sourcePoint" />
            <mxPoint x="581.73" y="140" as="targetPoint" />
            <Array as="points">
              <mxPoint x="601.73" y="150" />
            </Array>
          </mxGeometry>
        </mxCell>
        <mxCell id="X4AEslMbNNMhsFveHLo--15" value="" style="endArrow=none;html=1;rounded=0;exitX=0.5;exitY=0;exitDx=0;exitDy=0;" parent="1" source="PoIpQ0HLdhZe41mP14lp-14" edge="1">
          <mxGeometry width="50" height="50" relative="1" as="geometry">
            <mxPoint x="646.73" y="210" as="sourcePoint" />
            <mxPoint x="581.73" y="140" as="targetPoint" />
            <Array as="points">
              <mxPoint x="601.73" y="150" />
            </Array>
          </mxGeometry>
        </mxCell>
        <mxCell id="X4AEslMbNNMhsFveHLo--25" value="&lt;font size=&quot;1&quot;&gt;16. Update order status&lt;/font&gt;" style="ellipse;whiteSpace=wrap;html=1;fillColor=#FFFF66;" parent="1" vertex="1">
          <mxGeometry x="531.56" y="500" width="81.72" height="50" as="geometry" />
        </mxCell>
        <mxCell id="X4AEslMbNNMhsFveHLo--28" value="&lt;font style=&quot;font-size: 9px;&quot;&gt;Manage product categorization&lt;/font&gt;" style="ellipse;whiteSpace=wrap;html=1;" parent="1" vertex="1">
          <mxGeometry x="613.28" y="380.00000000000006" width="90" height="44.22" as="geometry" />
        </mxCell>
        <mxCell id="DuX1aJ7pJGagUsRcCWRq-1" value="&lt;font style=&quot;font-size: 9px;&quot;&gt;Check login information&lt;/font&gt;" style="ellipse;whiteSpace=wrap;html=1;" parent="1" vertex="1">
          <mxGeometry x="314.85" y="320" width="70" height="40" as="geometry" />
        </mxCell>
        <mxCell id="DuX1aJ7pJGagUsRcCWRq-3" value="&lt;font style=&quot;font-size: 9px;&quot;&gt;&amp;lt;&amp;lt;include&amp;gt;&amp;gt;&lt;/font&gt;" style="html=1;verticalAlign=bottom;labelBackgroundColor=none;endArrow=open;endFill=0;dashed=1;rounded=0;" parent="1" source="DuX1aJ7pJGagUsRcCWRq-1" target="PoIpQ0HLdhZe41mP14lp-16" edge="1">
          <mxGeometry x="-0.2283" y="1" width="160" relative="1" as="geometry">
            <mxPoint x="501.73" y="270" as="sourcePoint" />
            <mxPoint x="456.73" y="240" as="targetPoint" />
            <mxPoint y="1" as="offset" />
          </mxGeometry>
        </mxCell>
        <mxCell id="DuX1aJ7pJGagUsRcCWRq-4" value="&lt;font style=&quot;font-size: 9px;&quot;&gt;7. Confirm ordering&lt;/font&gt;" style="ellipse;whiteSpace=wrap;html=1;fillColor=#FFFF66;" parent="1" vertex="1">
          <mxGeometry x="270" y="500" width="75.71" height="42.5" as="geometry" />
        </mxCell>
        <mxCell id="DuX1aJ7pJGagUsRcCWRq-15" value="&lt;font style=&quot;font-size: 9px;&quot;&gt;Check order information&lt;/font&gt;" style="ellipse;whiteSpace=wrap;html=1;" parent="1" vertex="1">
          <mxGeometry x="400.00000000000006" y="585" width="59" height="35" as="geometry" />
        </mxCell>
        <mxCell id="DuX1aJ7pJGagUsRcCWRq-17" value="&lt;font style=&quot;font-size: 9px;&quot;&gt;&amp;lt;&amp;lt;extend&amp;gt;&amp;gt;&lt;/font&gt;" style="html=1;verticalAlign=bottom;labelBackgroundColor=none;endArrow=open;endFill=0;dashed=1;rounded=0;" parent="1" source="DuX1aJ7pJGagUsRcCWRq-15" target="A0umYNvF5nIpXT-o77tM-15" edge="1">
          <mxGeometry x="-0.6485" y="-21" width="160" relative="1" as="geometry">
            <mxPoint x="419.81" y="399.72" as="sourcePoint" />
            <mxPoint x="372.81" y="420.72" as="targetPoint" />
            <mxPoint as="offset" />
          </mxGeometry>
        </mxCell>
        <mxCell id="-NbWwGFisQRcI3op6reY-1" value="" style="endArrow=block;endSize=16;endFill=0;html=1;rounded=0;entryX=0.5;entryY=0.5;entryDx=0;entryDy=0;entryPerimeter=0;" parent="1" edge="1">
          <mxGeometry width="160" relative="1" as="geometry">
            <mxPoint x="161.73" y="400" as="sourcePoint" />
            <mxPoint x="541.73" y="130.00000000000006" as="targetPoint" />
            <Array as="points">
              <mxPoint x="150" y="400" />
              <mxPoint x="150" y="260" />
              <mxPoint x="150" y="130" />
            </Array>
          </mxGeometry>
        </mxCell>
        <mxCell id="-NbWwGFisQRcI3op6reY-2" value="" style="endArrow=block;endSize=16;endFill=0;html=1;rounded=0;" parent="1" edge="1">
          <mxGeometry width="160" relative="1" as="geometry">
            <mxPoint x="950" y="305" as="sourcePoint" />
            <mxPoint x="581.73" y="130" as="targetPoint" />
            <Array as="points">
              <mxPoint x="971.73" y="305" />
              <mxPoint x="971.73" y="130" />
            </Array>
          </mxGeometry>
        </mxCell>
        <mxCell id="-NbWwGFisQRcI3op6reY-4" value="" style="endArrow=block;endSize=16;endFill=0;html=1;rounded=0;" parent="1" edge="1">
          <mxGeometry width="160" relative="1" as="geometry">
            <mxPoint x="951.73" y="470" as="sourcePoint" />
            <mxPoint x="581.73" y="130" as="targetPoint" />
            <Array as="points">
              <mxPoint x="971.73" y="470" />
              <mxPoint x="971.73" y="300" />
              <mxPoint x="971.73" y="130" />
            </Array>
          </mxGeometry>
        </mxCell>
        <mxCell id="F4AExtvisEfdRYnd3nXG-2" value="&lt;font size=&quot;1&quot;&gt;View products&lt;/font&gt;" style="ellipse;whiteSpace=wrap;html=1;" parent="1" vertex="1">
          <mxGeometry x="528.28" y="370" width="70" height="30" as="geometry" />
        </mxCell>
        <mxCell id="F4AExtvisEfdRYnd3nXG-3" value="&lt;font style=&quot;font-size: 9px;&quot;&gt;&amp;lt;&amp;lt;extend&amp;gt;&amp;gt;&lt;/font&gt;" style="html=1;verticalAlign=bottom;labelBackgroundColor=none;endArrow=open;endFill=0;dashed=1;rounded=0;" parent="1" source="F4AExtvisEfdRYnd3nXG-2" target="PoIpQ0HLdhZe41mP14lp-14" edge="1">
          <mxGeometry x="-0.0903" y="-5" width="160" relative="1" as="geometry">
            <mxPoint x="549.73" y="261" as="sourcePoint" />
            <mxPoint x="590.73" y="231" as="targetPoint" />
            <mxPoint as="offset" />
          </mxGeometry>
        </mxCell>
        <mxCell id="F4AExtvisEfdRYnd3nXG-8" value="&lt;font style=&quot;font-size: 9px;&quot;&gt;&amp;lt;&amp;lt;extend&amp;gt;&amp;gt;&lt;/font&gt;" style="html=1;verticalAlign=bottom;labelBackgroundColor=none;endArrow=open;endFill=0;dashed=1;rounded=0;" parent="1" source="A0umYNvF5nIpXT-o77tM-14" target="DuX1aJ7pJGagUsRcCWRq-4" edge="1">
          <mxGeometry x="-0.0049" y="14" width="160" relative="1" as="geometry">
            <mxPoint x="387.81" y="490.72" as="sourcePoint" />
            <mxPoint x="360.81" y="454.72" as="targetPoint" />
            <mxPoint as="offset" />
          </mxGeometry>
        </mxCell>
        <mxCell id="F4AExtvisEfdRYnd3nXG-9" value="&lt;font style=&quot;font-size: 9px;&quot;&gt;3. Log out&lt;/font&gt;" style="ellipse;whiteSpace=wrap;html=1;fillColor=#FFFF66;" parent="1" vertex="1">
          <mxGeometry x="526.64" y="427.5" width="63.28" height="37.5" as="geometry" />
        </mxCell>
        <mxCell id="F4AExtvisEfdRYnd3nXG-16" value="&lt;font style=&quot;font-size: 9px;&quot;&gt;&amp;lt;&amp;lt;extend&amp;gt;&amp;gt;&lt;/font&gt;" style="html=1;verticalAlign=bottom;labelBackgroundColor=none;endArrow=open;endFill=0;dashed=1;rounded=0;" parent="1" source="A0umYNvF5nIpXT-o77tM-8" target="A0umYNvF5nIpXT-o77tM-12" edge="1">
          <mxGeometry x="-0.1331" y="8" width="160" relative="1" as="geometry">
            <mxPoint x="474.73" y="474" as="sourcePoint" />
            <mxPoint x="434.73" y="425" as="targetPoint" />
            <mxPoint as="offset" />
          </mxGeometry>
        </mxCell>
        <mxCell id="PVgmuxaH_NVoF7FF7axA-2" value="&lt;font style=&quot;font-size: 9px;&quot;&gt;&amp;lt;&amp;lt;extend&amp;gt;&amp;gt;&lt;/font&gt;" style="html=1;verticalAlign=bottom;labelBackgroundColor=none;endArrow=open;endFill=0;dashed=1;rounded=0;" parent="1" source="PVgmuxaH_NVoF7FF7axA-3" target="PoIpQ0HLdhZe41mP14lp-16" edge="1">
          <mxGeometry x="-0.2283" y="1" width="160" relative="1" as="geometry">
            <mxPoint x="371.73" y="250" as="sourcePoint" />
            <mxPoint x="414.73" y="239" as="targetPoint" />
            <mxPoint y="1" as="offset" />
          </mxGeometry>
        </mxCell>
        <mxCell id="PVgmuxaH_NVoF7FF7axA-3" value="&lt;font size=&quot;1&quot;&gt;1. Sign up&lt;/font&gt;" style="ellipse;whiteSpace=wrap;html=1;fillColor=#FFFF66;" parent="1" vertex="1">
          <mxGeometry x="296.88" y="200" width="70" height="30" as="geometry" />
        </mxCell>
        <mxCell id="mTP8olNIWSn3JPrujFnz-2" value="" style="endArrow=none;html=1;rounded=0;" parent="1" source="PVgmuxaH_NVoF7FF7axA-3" edge="1">
          <mxGeometry width="50" height="50" relative="1" as="geometry">
            <mxPoint x="401.73" y="210" as="sourcePoint" />
            <mxPoint x="541.73" y="140" as="targetPoint" />
          </mxGeometry>
        </mxCell>
        <mxCell id="mTP8olNIWSn3JPrujFnz-10" value="" style="endArrow=none;html=1;rounded=0;" parent="1" source="A0umYNvF5nIpXT-o77tM-5" edge="1">
          <mxGeometry width="50" height="50" relative="1" as="geometry">
            <mxPoint x="761.73" y="410" as="sourcePoint" />
            <mxPoint x="901.73" y="310" as="targetPoint" />
          </mxGeometry>
        </mxCell>
        <mxCell id="mTP8olNIWSn3JPrujFnz-14" value="" style="endArrow=none;html=1;rounded=0;" parent="1" source="A0umYNvF5nIpXT-o77tM-4" edge="1">
          <mxGeometry width="50" height="50" relative="1" as="geometry">
            <mxPoint x="774.73" y="289" as="sourcePoint" />
            <mxPoint x="901.73" y="310" as="targetPoint" />
          </mxGeometry>
        </mxCell>
        <mxCell id="mTP8olNIWSn3JPrujFnz-16" value="" style="endArrow=none;html=1;rounded=0;" parent="1" source="A0umYNvF5nIpXT-o77tM-6" edge="1">
          <mxGeometry width="50" height="50" relative="1" as="geometry">
            <mxPoint x="774.73" y="289" as="sourcePoint" />
            <mxPoint x="901.73" y="310" as="targetPoint" />
          </mxGeometry>
        </mxCell>
        <mxCell id="mTP8olNIWSn3JPrujFnz-17" value="" style="endArrow=none;html=1;rounded=0;" parent="1" source="A0umYNvF5nIpXT-o77tM-2" edge="1">
          <mxGeometry width="50" height="50" relative="1" as="geometry">
            <mxPoint x="740.73" y="332" as="sourcePoint" />
            <mxPoint x="901.73" y="310" as="targetPoint" />
          </mxGeometry>
        </mxCell>
        <mxCell id="3hDgLRAq6CsQM7wfsZl0-1" value="&lt;font style=&quot;font-size: 9px;&quot;&gt;14. Add stores&lt;/font&gt;" style="ellipse;whiteSpace=wrap;html=1;fillColor=#FFFF66;" parent="1" vertex="1">
          <mxGeometry x="785.0000000000002" y="685" width="80" height="46.72" as="geometry" />
        </mxCell>
        <mxCell id="3hDgLRAq6CsQM7wfsZl0-2" value="&lt;font style=&quot;font-size: 9px;&quot;&gt;15. Post products&lt;/font&gt;" style="ellipse;whiteSpace=wrap;html=1;fillColor=#FFFF66;" parent="1" vertex="1">
          <mxGeometry x="581.73" y="640" width="60" height="40" as="geometry" />
        </mxCell>
        <mxCell id="3hDgLRAq6CsQM7wfsZl0-4" value="" style="endArrow=none;html=1;rounded=0;" parent="1" source="3hDgLRAq6CsQM7wfsZl0-2" edge="1">
          <mxGeometry width="50" height="50" relative="1" as="geometry">
            <mxPoint x="730" y="600" as="sourcePoint" />
            <mxPoint x="860" y="470" as="targetPoint" />
          </mxGeometry>
        </mxCell>
        <mxCell id="3hDgLRAq6CsQM7wfsZl0-5" value="" style="endArrow=none;html=1;rounded=0;" parent="1" source="3hDgLRAq6CsQM7wfsZl0-1" edge="1">
          <mxGeometry width="50" height="50" relative="1" as="geometry">
            <mxPoint x="810" y="540" as="sourcePoint" />
            <mxPoint x="860" y="470" as="targetPoint" />
          </mxGeometry>
        </mxCell>
        <mxCell id="3hDgLRAq6CsQM7wfsZl0-6" value="&lt;font style=&quot;font-size: 9px;&quot;&gt;&amp;lt;&amp;lt;extend&amp;gt;&amp;gt;&lt;/font&gt;" style="html=1;verticalAlign=bottom;labelBackgroundColor=none;endArrow=open;endFill=0;dashed=1;rounded=0;" parent="1" source="A0umYNvF5nIpXT-o77tM-12" target="3hDgLRAq6CsQM7wfsZl0-1" edge="1">
          <mxGeometry x="0.16" y="3" width="160" relative="1" as="geometry">
            <mxPoint x="594" y="474" as="sourcePoint" />
            <mxPoint x="629" y="488" as="targetPoint" />
            <mxPoint as="offset" />
          </mxGeometry>
        </mxCell>
        <mxCell id="3hDgLRAq6CsQM7wfsZl0-7" value="&lt;font style=&quot;font-size: 9px;&quot;&gt;&amp;lt;&amp;lt;extend&amp;gt;&amp;gt;&lt;/font&gt;" style="html=1;verticalAlign=bottom;labelBackgroundColor=none;endArrow=open;endFill=0;dashed=1;rounded=0;" parent="1" source="A0umYNvF5nIpXT-o77tM-9" target="3hDgLRAq6CsQM7wfsZl0-2" edge="1">
          <mxGeometry x="0.16" y="3" width="160" relative="1" as="geometry">
            <mxPoint x="655" y="525" as="sourcePoint" />
            <mxPoint x="645" y="561" as="targetPoint" />
            <mxPoint as="offset" />
          </mxGeometry>
        </mxCell>
        <mxCell id="3hDgLRAq6CsQM7wfsZl0-9" value="&lt;font style=&quot;font-size: 9px;&quot;&gt;&amp;lt;&amp;lt;extend&amp;gt;&amp;gt;&lt;/font&gt;" style="html=1;verticalAlign=bottom;labelBackgroundColor=none;endArrow=open;endFill=0;dashed=1;rounded=0;" parent="1" source="3hDgLRAq6CsQM7wfsZl0-2" target="A0umYNvF5nIpXT-o77tM-12" edge="1">
          <mxGeometry x="0.16" y="3" width="160" relative="1" as="geometry">
            <mxPoint x="741" y="667" as="sourcePoint" />
            <mxPoint x="792" y="663" as="targetPoint" />
            <mxPoint as="offset" />
          </mxGeometry>
        </mxCell>
        <mxCell id="3hDgLRAq6CsQM7wfsZl0-10" value="&lt;font style=&quot;font-size: 9px;&quot;&gt;&amp;lt;&amp;lt;extend&amp;gt;&amp;gt;&lt;/font&gt;" style="html=1;verticalAlign=bottom;labelBackgroundColor=none;endArrow=open;endFill=0;dashed=1;rounded=0;" parent="1" source="X4AEslMbNNMhsFveHLo--28" target="A0umYNvF5nIpXT-o77tM-6" edge="1">
          <mxGeometry x="-0.1342" y="-3" width="160" relative="1" as="geometry">
            <mxPoint x="730" y="348" as="sourcePoint" />
            <mxPoint x="768" y="364" as="targetPoint" />
            <mxPoint as="offset" />
          </mxGeometry>
        </mxCell>
        <mxCell id="_5mIFH6RfY2-4TW6TgeX-1" value="" style="endArrow=none;html=1;rounded=0;" edge="1" parent="1">
          <mxGeometry width="50" height="50" relative="1" as="geometry">
            <mxPoint x="200" y="400" as="sourcePoint" />
            <mxPoint x="270" y="400" as="targetPoint" />
          </mxGeometry>
        </mxCell>
        <mxCell id="_5mIFH6RfY2-4TW6TgeX-3" value="" style="endArrow=none;html=1;rounded=0;" edge="1" parent="1" target="A0umYNvF5nIpXT-o77tM-15">
          <mxGeometry width="50" height="50" relative="1" as="geometry">
            <mxPoint x="270" y="400" as="sourcePoint" />
            <mxPoint x="250" y="490" as="targetPoint" />
          </mxGeometry>
        </mxCell>
        <mxCell id="_5mIFH6RfY2-4TW6TgeX-4" value="" style="endArrow=none;html=1;rounded=0;" edge="1" parent="1" source="DuX1aJ7pJGagUsRcCWRq-4">
          <mxGeometry width="50" height="50" relative="1" as="geometry">
            <mxPoint x="180" y="530" as="sourcePoint" />
            <mxPoint x="270" y="400" as="targetPoint" />
          </mxGeometry>
        </mxCell>
        <mxCell id="_5mIFH6RfY2-4TW6TgeX-5" value="" style="endArrow=none;html=1;rounded=0;" edge="1" parent="1" target="F4AExtvisEfdRYnd3nXG-9">
          <mxGeometry width="50" height="50" relative="1" as="geometry">
            <mxPoint x="270" y="400" as="sourcePoint" />
            <mxPoint x="410" y="370" as="targetPoint" />
          </mxGeometry>
        </mxCell>
        <mxCell id="_5mIFH6RfY2-4TW6TgeX-6" value="" style="endArrow=none;html=1;rounded=0;" edge="1" parent="1" source="F4AExtvisEfdRYnd3nXG-9">
          <mxGeometry width="50" height="50" relative="1" as="geometry">
            <mxPoint x="780" y="510" as="sourcePoint" />
            <mxPoint x="860" y="470" as="targetPoint" />
          </mxGeometry>
        </mxCell>
        <mxCell id="_5mIFH6RfY2-4TW6TgeX-7" value="" style="endArrow=none;html=1;rounded=0;" edge="1" parent="1" source="F4AExtvisEfdRYnd3nXG-9">
          <mxGeometry width="50" height="50" relative="1" as="geometry">
            <mxPoint x="870" y="430" as="sourcePoint" />
            <mxPoint x="900" y="310" as="targetPoint" />
            <Array as="points">
              <mxPoint x="790" y="450" />
            </Array>
          </mxGeometry>
        </mxCell>
        <mxCell id="_5mIFH6RfY2-4TW6TgeX-9" value="" style="endArrow=none;html=1;rounded=0;" edge="1" parent="1" source="X4AEslMbNNMhsFveHLo--25">
          <mxGeometry width="50" height="50" relative="1" as="geometry">
            <mxPoint x="690" y="550" as="sourcePoint" />
            <mxPoint x="860" y="470" as="targetPoint" />
          </mxGeometry>
        </mxCell>
        <mxCell id="_5mIFH6RfY2-4TW6TgeX-11" value="&lt;font style=&quot;font-size: 9px;&quot;&gt;&amp;lt;&amp;lt;extend&amp;gt;&amp;gt;&lt;/font&gt;" style="html=1;verticalAlign=bottom;labelBackgroundColor=none;endArrow=open;endFill=0;dashed=1;rounded=0;" edge="1" parent="1" source="PoIpQ0HLdhZe41mP14lp-13" target="PoIpQ0HLdhZe41mP14lp-14">
          <mxGeometry x="-0.0903" y="-5" width="160" relative="1" as="geometry">
            <mxPoint x="568" y="380" as="sourcePoint" />
            <mxPoint x="542" y="315" as="targetPoint" />
            <mxPoint as="offset" />
          </mxGeometry>
        </mxCell>
      </root>
    </mxGraphModel>
  </diagram>
</mxfile>
